# xmcd
#
# Track frame offsets:
#	150
#	18319
#	35871
#	52666
#	79444
#	97307
#	109675
#	128691
#	143935
#	149819
#	174881
#	203880
#	226568
#	249229
#	251022
#
# Disc length: 3579 seconds
#
# Revision: 1
# Processed by: cddbd v1.5.1PL0 Copyright (c) Steve Scherf et al.
# Submitted via: EasyCDDAExtractor 5.0.6
#
DISCID=ce0df90f
DTITLE=Various Artist - Chamame Crudo
DYEAR=2000
DGENRE=Chamame
TTITLE0=Posadas
TTITLE1=Formosa
TTITLE2=Ranchera, para Astor Piazolla y la soledad de la provocacion apasio
TTITLE2=nada
TTITLE3=Chamame Crudo, para Grabriel Villalba
TTITLE4=Solo para mi
TTITLE5=Pynandi, los descalzos
TTITLE6=Josefina
TTITLE7=Gato Moro
TTITLE8=El Monte
TTITLE9=Escenans de la Vida al Borde (Genesisi del Chamame)
TTITLE10=Improvisacion Para Iscao Abitol
TTITLE11=Adios beatriz
TTITLE12=Misiones
TTITLE13=Chango Spasiuk - voces del monte
TTITLE14=El Monte (nueva version)
EXTD=
EXTT0=
EXTT1=
EXTT2=
EXTT3=
EXTT4=
EXTT5=
EXTT6=
EXTT7=
EXTT8=
EXTT9=
EXTT10=
EXTT11=
EXTT12=
EXTT13=
EXTT14=
PLAYORDER=
